<?xml version="1.0" encoding="utf-8"?>
<!-- Generator: Adobe Illustrator 16.0.0, SVG Export Plug-In . SVG Version: 6.00 Build 0)  -->
<!DOCTYPE svg PUBLIC "-//W3C//DTD SVG 1.1//EN" "http://www.w3.org/Graphics/SVG/1.1/DTD/svg11.dtd">
<svg version="1.1" id="Capa_1" xmlns="http://www.w3.org/2000/svg" xmlns:xlink="http://www.w3.org/1999/xlink" x="0px" y="0px"
	 width="56.667px" height="51.27px" viewBox="0 0 56.667 51.27" enable-background="new 0 0 56.667 51.27" xml:space="preserve">
<circle fill-rule="evenodd" clip-rule="evenodd" fill="#36B5A5" cx="28.052" cy="25.885" r="25.552"/>
<g>
	<g>
		<g>
			<path fill-rule="evenodd" clip-rule="evenodd" fill="#FFFFFF" d="M25.838,26.361c0.095-3.149,0.837-6.046,3.466-8.082
				c2.828-2.19,6.03-2.227,9.341-1.427c0.58,0.141,0.629,0.448,0.43,0.944c-0.344,0.857-0.686,1.72-0.958,2.601
				c-0.181,0.582-0.447,0.652-1.017,0.522c-1.778-0.406-3.487-0.36-4.866,1.095c-0.418,0.441-0.723,0.946-0.91,1.516
				c-0.683,2.085-0.631,4.159,0.174,6.2c0.337,0.854,0.906,1.545,1.747,1.949c0.455,0.219,0.55,0.472,0.361,0.937
				c-0.346,0.856-0.67,1.724-0.944,2.606c-0.208,0.673-0.555,0.77-1.177,0.53c-2.909-1.12-4.514-3.328-5.266-6.249
				C25.957,28.479,25.881,27.422,25.838,26.361z"/>
		</g>
		<g>
			<path fill-rule="evenodd" clip-rule="evenodd" fill="#FFFFFF" d="M40.301,29.812c0,1.517-0.033,3.036,0.015,4.552
				c0.021,0.642-0.224,0.961-0.797,1.167c-1.51,0.54-3.079,0.684-4.66,0.76c-0.576,0.028-0.801-0.196-0.55-0.779
				c0.182-0.422,0.275-0.888,0.49-1.291c0.949-1.78,0.765-3.704,0.782-5.61c0.006-0.685-0.421-0.616-0.852-0.611
				c-1.495,0.017-1.375,0.1-1.378-1.4c-0.002-2.518-0.001-2.518,2.554-2.518c1.056,0,2.118,0.07,3.166-0.02
				c1.045-0.089,1.301,0.319,1.25,1.296C40.244,26.84,40.301,28.328,40.301,29.812z"/>
		</g>
	</g>
</g>
<path fill-rule="evenodd" clip-rule="evenodd" fill="#FFFFFF" d="M16.718,26.769c0-2.811,0.027-5.621-0.018-8.431
	c-0.012-0.75,0.255-1.088,0.949-1.287c3.121-0.893,6.244-1.06,9.354-0.029c2.206,0.73,3.585,2.957,3.785,5.255
	c0.384,4.401-3.358,6.996-6.939,6.945c-2.045-0.029-2.045-0.003-2.045,2.004c0,1.389-0.022,2.777,0.009,4.165
	c0.016,0.702-0.258,0.976-0.958,0.955c-1.082-0.033-2.168-0.05-3.249,0.005c-0.746,0.038-0.906-0.272-0.9-0.949
	C16.735,32.525,16.718,29.647,16.718,26.769z M21.805,22.767c0,0.643,0.015,1.287-0.004,1.929c-0.015,0.477,0.183,0.667,0.66,0.658
	c2.291-0.044,3.457-0.678,3.212-3.143c-0.135-1.354-1.138-1.996-3.027-1.95c-1.517,0.036-0.603,1.18-0.83,1.799
	C21.739,22.269,21.804,22.529,21.805,22.767z"/>
</svg>
