<?xml version="1.0" standalone="no"?>
<!DOCTYPE svg PUBLIC "-//W3C//DTD SVG 20010904//EN"
 "http://www.w3.org/TR/2001/REC-SVG-20010904/DTD/svg10.dtd">
<svg version="1.0" xmlns="http://www.w3.org/2000/svg"
 width="306.000000pt" height="301.000000pt" viewBox="0 0 306.000000 301.000000"
 preserveAspectRatio="xMidYMid meet">
<metadata>
Created by potrace 1.15, written by Peter Selinger 2001-2017
</metadata>
<g transform="translate(0.000000,301.000000) scale(0.100000,-0.100000)"
fill="#0070ba" stroke="none">
<path d="M1409 3000 c-375 -35 -691 -188 -950 -458 -429 -447 -536 -1104 -272
-1671 173 -373 531 -681 926 -795 153 -44 260 -59 427 -59 347 0 652 105 924
317 552 431 728 1194 423 1826 -130 268 -341 497 -592 642 -265 153 -590 226
-886 198z m421 -119 c284 -63 501 -184 708 -392 188 -189 318 -434 378 -709
28 -128 26 -420 -3 -552 -99 -443 -378 -794 -783 -987 -370 -176 -810 -176
-1180 0 -406 194 -688 550 -782 988 -31 141 -33 420 -4 551 122 563 547 993
1087 1099 57 11 113 22 124 25 11 3 97 3 190 1 127 -2 194 -8 265 -24z"/>
<path d="M909 1599 c-51 -54 -50 -134 1 -189 26 -28 33 -30 97 -30 63 0 72 3
97 28 54 57 54 137 -1 194 -24 25 -33 28 -96 28 -64 0 -71 -2 -98 -31z"/>
<path d="M1447 1604 c-57 -57 -57 -141 -1 -198 24 -23 35 -26 94 -26 59 0 70
3 94 26 56 57 56 141 -1 198 -23 23 -34 26 -93 26 -59 0 -70 -3 -93 -26z"/>
<path d="M1976 1602 c-54 -57 -54 -137 1 -194 24 -25 33 -28 96 -28 64 0 71 2
97 30 51 55 52 135 1 189 -27 29 -34 31 -98 31 -63 0 -72 -3 -97 -28z"/>
</g>
</svg>
