<?xml version="1.0" standalone="no"?>
<!DOCTYPE svg PUBLIC "-//W3C//DTD SVG 20010904//EN"
 "http://www.w3.org/TR/2001/REC-SVG-20010904/DTD/svg10.dtd">
<svg version="1.0" xmlns="http://www.w3.org/2000/svg"
 width="305.000000pt" height="302.000000pt" viewBox="0 0 305.000000 302.000000"
 preserveAspectRatio="xMidYMid meet">
<metadata>
Created by potrace 1.15, written by Peter Selinger 2001-2017
</metadata>
<g transform="translate(0.000000,302.000000) scale(0.100000,-0.100000)"
fill="#0070ba" stroke="none">
<path d="M1412 2999 c-324 -29 -652 -176 -885 -399 -242 -230 -394 -512 -454
-845 -22 -119 -21 -367 1 -492 130 -730 741 -1246 1476 -1246 187 0 345 28
530 95 377 135 708 460 859 844 194 492 120 1042 -197 1459 -113 148 -301 313
-457 400 -169 95 -408 167 -615 185 -126 11 -125 11 -258 -1z m1077 -654 c5
-6 17 -190 26 -410 16 -385 16 -400 -2 -413 -10 -7 -34 -12 -53 -10 -28 2 -36
8 -38 26 -3 17 2 25 17 29 16 4 21 13 21 42 1 72 -22 637 -26 657 -3 19 -12
22 -101 27 -139 8 -342 -8 -682 -53 -355 -48 -545 -64 -697 -58 l-114 4 0 -28
c0 -34 -29 -53 -54 -35 -13 10 -16 25 -14 71 l3 58 260 2 c244 2 279 5 560 44
165 23 338 46 385 51 106 12 497 8 509 -4z m-281 -264 c56 -5 109 -14 117 -21
13 -11 15 -71 15 -410 0 -311 -3 -400 -13 -408 -8 -7 -26 -8 -52 -2 -90 19
-275 31 -396 24 -125 -7 -127 -6 -134 16 -4 13 -2 27 4 34 14 13 370 16 464 3
l57 -7 0 349 0 349 -67 8 c-84 9 -239 0 -493 -27 -338 -35 -631 -36 -908 -3
l-52 7 2 -339 3 -339 45 -8 c25 -5 158 -10 295 -11 l250 -4 0 -28 0 -29 -120
-6 c-143 -8 -420 6 -490 23 l-50 13 -3 397 c-2 389 -2 397 18 403 11 3 24 4
28 1 5 -3 75 -12 158 -22 224 -25 478 -22 799 9 149 15 295 28 325 30 30 2 64
4 75 5 11 0 66 -3 123 -7z m-601 -277 c53 -31 94 -99 101 -165 7 -70 -32 -147
-95 -188 -26 -17 -51 -31 -57 -31 -8 0 -9 -97 -5 -330 3 -182 8 -332 10 -335
3 -2 55 29 117 70 61 41 118 75 125 75 16 0 37 -20 37 -36 0 -6 -70 -57 -155
-114 -140 -93 -156 -101 -173 -89 -11 8 -78 54 -150 103 -73 49 -132 94 -132
101 0 15 21 35 37 35 8 0 61 -32 120 -71 l106 -72 -6 189 c-4 104 -7 253 -7
332 0 136 -1 142 -20 142 -12 0 -37 9 -58 19 -74 38 -112 102 -112 188 0 69
26 121 82 166 65 53 156 57 235 11z"/>
<path d="M1431 1753 c-65 -32 -93 -111 -66 -181 44 -108 187 -121 252 -23 80
119 -56 268 -186 204z"/>
</g>
</svg>
