<svg id="Capa_1" data-name="Capa 1" xmlns="http://www.w3.org/2000/svg" viewBox="0 0 27.76 20.82"><defs><style>.cls-1{fill:#fff;}</style></defs><title>resumen</title><path class="cls-1" d="M26.9,17.35H3.47V.87A.87.87,0,0,0,2.6,0H.87A.87.87,0,0,0,0,.87V19.09a1.73,1.73,0,0,0,1.74,1.73H26.9a.87.87,0,0,0,.86-.87V18.22A.87.87,0,0,0,26.9,17.35ZM25.16,1.74h-6.4A1.3,1.3,0,0,0,17.84,4L19.6,5.71l-4,4-4-4a1.76,1.76,0,0,0-2.46,0L5.46,9.44a.87.87,0,0,0,0,1.23l1.23,1.22a.86.86,0,0,0,1.22,0l2.5-2.5,4,4a1.73,1.73,0,0,0,2.45,0l5.21-5.2,1.76,1.75A1.3,1.3,0,0,0,26,9V2.6A.86.86,0,0,0,25.16,1.74Z"/></svg>