<?xml version="1.0" standalone="no"?>
<!DOCTYPE svg PUBLIC "-//W3C//DTD SVG 20010904//EN"
 "http://www.w3.org/TR/2001/REC-SVG-20010904/DTD/svg10.dtd">
<svg version="1.0" xmlns="http://www.w3.org/2000/svg"
 width="303.000000pt" height="301.000000pt" viewBox="0 0 303.000000 301.000000"
 preserveAspectRatio="xMidYMid meet">
<metadata>
Created by potrace 1.15, written by Peter Selinger 2001-2017
</metadata>
<g transform="translate(0.000000,301.000000) scale(0.100000,-0.100000)"
fill="#0070ba" stroke="none">
<path d="M1382 2989 c-534 -48 -1005 -385 -1228 -880 -91 -203 -128 -381 -127
-609 2 -405 140 -749 418 -1039 264 -276 606 -429 1020 -456 255 -17 595 72
832 216 549 335 826 991 681 1614 -129 558 -556 987 -1113 1118 -185 44 -301
52 -483 36z m265 -652 c4 -8 63 -51 131 -96 67 -45 122 -85 122 -90 0 -22 -13
-41 -29 -41 -9 0 -60 29 -113 65 -54 36 -100 65 -103 65 -3 0 -5 -146 -5 -325
l0 -325 26 0 c33 0 61 -15 102 -54 58 -54 80 -121 63 -196 -35 -157 -224 -220
-342 -113 -47 43 -60 64 -70 118 -17 91 38 198 119 232 l32 13 0 335 c0 184
-2 335 -5 335 -3 0 -56 -34 -119 -76 -117 -78 -151 -88 -151 -45 0 18 27 42
135 116 136 95 187 115 207 82z m675 -568 c53 -6 104 -16 112 -23 14 -9 16
-63 16 -400 1 -214 -3 -393 -8 -398 -4 -4 -53 -1 -108 7 -256 38 -526 38 -894
0 -257 -26 -399 -33 -513 -24 -60 5 -116 14 -123 20 -11 9 -14 86 -14 405 0
344 2 395 16 408 9 9 25 14 37 11 102 -22 179 -29 347 -29 194 -1 195 -1 198
-23 6 -40 -32 -45 -258 -39 -113 3 -220 8 -237 12 l-33 6 0 -350 0 -350 67 -8
c83 -9 238 0 493 26 342 36 628 37 918 3 l52 -6 0 336 c0 292 -2 336 -15 341
-40 15 -265 28 -410 24 -88 -3 -166 -3 -172 -1 -23 8 -15 52 10 58 66 15 355
12 519 -6z m-1612 -295 c0 -17 -6 -28 -20 -31 -12 -3 -20 -14 -20 -27 1 -98
30 -689 34 -693 3 -3 90 -5 193 -5 190 1 234 5 823 84 110 14 216 21 368 22
l213 1 -6 22 c-5 20 16 53 34 53 21 0 32 -32 29 -85 l-3 -57 -260 -3 c-202 -2
-294 -7 -410 -24 -504 -72 -531 -74 -781 -75 -177 -1 -245 2 -256 11 -12 10
-17 74 -27 350 -6 186 -14 363 -17 394 -7 69 8 89 67 89 35 0 39 -2 39 -26z"/>
<path d="M1572 1514 c-130 -66 -94 -256 51 -271 79 -8 145 47 154 128 5 51
-18 102 -58 132 -37 27 -106 32 -147 11z"/>
</g>
</svg>
