<?xml version="1.0" standalone="no"?><!DOCTYPE svg PUBLIC "-//W3C//DTD SVG 1.1//EN" "http://www.w3.org/Graphics/SVG/1.1/DTD/svg11.dtd"><svg class="icon" height="512" viewBox="0 0 1024 1024" version="1.1" xmlns="http://www.w3.org/2000/svg"><path d="M794.626665 538.808743a17.497332 17.497332 0 1 1-34.994663 0V103.266744a66.972545 66.972545 0 0 0-66.218349-67.471474H176.801458a66.972545 66.972545 0 0 0-66.218349 67.471474v797.126444a66.972545 66.972545 0 0 0 66.218349 67.471474h442.074491a17.880231 17.880231 0 0 1 0 35.493592h-442.074491a102.210871 102.210871 0 0 1-100.70248-103.266744V103.266744a102.210871 102.210871 0 0 1 100.70248-103.266744h516.612195a102.210871 102.210871 0 0 1 100.70248 103.266744zM204.753097 213.541704a17.880231 17.880231 0 0 1 0-35.493592h453.166964a17.880231 17.880231 0 0 1 0 35.493592z m0 199.142375a17.880231 17.880231 0 0 1 0-35.493593h453.166964a17.880231 17.880231 0 0 1 0 35.493593z m0 199.142374a17.880231 17.880231 0 0 1 0-35.493592h191.588819a17.880231 17.880231 0 0 1 0 35.493592z m0 199.142375a17.880231 17.880231 0 0 1 0-35.493592h261.833411a17.880231 17.880231 0 0 1 0 35.493592z" fill="#fff" /><path d="M759.12147 996.767747a70.244592 70.244592 0 0 0 98.439895 12.589261l63.700497-50.357042a70.244592 70.244592 0 0 0 11.603005-98.439894l-32.998946-42.037687-2.517852-2.50625a18.878089 18.878089 0 0 0-1.763657-3.016781L657.920061 509.360316l-2.065335-1.984113-2.773119-2.018923h-4.026242l-145.466874-38.800449a19.632284 19.632284 0 0 0-16.870769 3.272047 19.133355 19.133355 0 0 0-7.29829 15.606042l2.517852 151.059522v5.7899a12.333994 12.333994 0 0 0 1.50839 2.320601l237.861603 304.636896 2.320601 2.517852a16.615503 16.615503 0 0 0 1.763657 2.773118l32.732077 42.04929z m97.685699-169.403873l-41.039828 31.977882-217.266269-276.975332 41.039829-31.977882z m-71.497717 55.891675l-41.039828 32.198339-217.208254-276.963729 41.039829-31.977882z m116.52898 1.728848a31.223686 31.223686 0 0 1-5.035705 43.801344l-63.700497 50.357042a31.223686 31.223686 0 0 1-43.557681-5.534634l-20.885409-26.686911 112.293883-87.869557zM517.187213 507.376203l82.833853 22.150136-81.313859 63.445231z" fill="#fff" /></svg>