<?xml version="1.0" encoding="utf-8"?>
<!-- Generator: Adobe Illustrator 16.0.0, SVG Export Plug-In . SVG Version: 6.00 Build 0)  -->
<!DOCTYPE svg PUBLIC "-//W3C//DTD SVG 1.1//EN" "http://www.w3.org/Graphics/SVG/1.1/DTD/svg11.dtd">
<svg version="1.1" id="Capa_1" xmlns="http://www.w3.org/2000/svg" xmlns:xlink="http://www.w3.org/1999/xlink" x="0px" y="0px"
	 width="8rem" height="2.6rem" viewBox="60.14 54.5 488.667 136.334" enable-background="new 60.14 54.5 488.667 136.334"
	 xml:space="preserve">
<g>
	<path fill="#36B5A5" d="M548.743,104.941c0,14.159-0.068,28.319,0.057,42.479c0.025,2.846-0.585,4.729-3.507,5.656
		c-13.26,4.205-26.675,5.831-40.222,1.776c-13.808-4.134-20.166-14.546-21.997-28.072c-0.938-6.933-0.714-13.957,1.133-20.818
		c4.378-16.277,17.996-25.917,34.915-24.026c4.627,0.517,5.237-0.854,5.016-4.801c-0.3-5.314,0.054-10.662-0.12-15.987
		c-0.105-3.242,1.094-4.488,4.357-4.379c5.325,0.177,10.667,0.218,15.987-0.011c3.608-0.155,4.479,1.339,4.443,4.705
		C548.657,75.954,548.743,90.448,548.743,104.941z M524.063,119.257c0-3.815,0.001-7.632,0-11.448
		c-0.002-6.938-3.601-8.991-9.919-5.674c-2.479,1.301-4.15,3.357-5.08,5.904c-2.646,7.261-2.673,14.642-0.099,21.882
		c1.721,4.84,5.495,7.293,10.676,7.521c3,0.131,4.64-0.825,4.476-4.25C523.895,128.556,524.061,123.902,524.063,119.257z"/>
	<path fill="#EEEEEE" d="M61.738,108.458c0-13.813,0.133-27.627-0.089-41.436c-0.06-3.692,1.256-5.353,4.664-6.329
		c15.336-4.392,30.689-5.209,45.981-0.142c10.836,3.591,17.62,14.532,18.604,25.833c1.883,21.628-16.509,34.385-34.11,34.134
		c-10.051-0.144-10.053-0.014-10.053,9.852c0,6.823-0.109,13.648,0.044,20.469c0.078,3.45-1.269,4.795-4.707,4.69
		c-5.32-0.163-10.66-0.246-15.972,0.026c-3.668,0.188-4.455-1.338-4.423-4.664C61.819,136.75,61.738,122.604,61.738,108.458z
		 M86.743,88.785c0,3.161,0.072,6.325-0.024,9.483c-0.07,2.342,0.899,3.28,3.242,3.235c11.262-0.214,16.992-3.334,15.786-15.45
		c-0.662-6.651-5.591-9.807-14.875-9.584c-7.458,0.179-2.964,5.803-4.079,8.843C86.418,86.339,86.736,87.62,86.743,88.785z"/>
	<path fill="#EEEEEE" d="M132.627,119.005c-0.155-13.681,4.041-25.468,15.999-32.907c17.158-10.675,48.443-5.916,51.159,22.489
		c0.016,0.166,0.032,0.331,0.054,0.496c2.197,16.758,1.362,13.676-11.987,15.434c-9.16,1.205-18.294,2.615-27.446,3.875
		c-3.232,0.443-3.1,1.867-1.325,3.918c4.421,5.115,10.339,5.746,16.42,4.964c4.567-0.586,9.112-1.714,13.51-3.099
		c2.662-0.836,4.156-0.389,5.094,2.114c1.396,3.728,2.709,7.486,4.15,11.195c1.078,2.772,0.1,4.475-2.525,5.483
		c-8.48,3.254-17.378,3.765-26.312,3.875c-7.802,0.098-15.178-1.681-21.728-6.03C136.303,143.251,132.925,131.841,132.627,119.005z
		 M167.476,99.479c-6.372,0.033-11.284,4.258-11.688,9.728c-0.158,2.135,0.127,3.458,3.035,2.849
		c4.02-0.841,8.161-1.151,12.264-1.532c1.998-0.186,4.402,0.092,5.226-2.002c0.729-1.857-0.424-3.888-1.615-5.48
		C172.817,100.528,170.489,98.736,167.476,99.479z"/>
	<path fill="#36B5A5" d="M440.953,118.808c-0.205,18.031-9.034,31.982-23.334,36.556c-23.579,7.539-44.837-8.238-45.76-33.931
		c-0.161-4.514,0.174-8.981,1.103-13.388c3.624-17.209,16.739-27.602,34.278-27.227c17.155,0.367,29.618,11.298,32.534,28.615
		C440.298,112.535,440.567,115.681,440.953,118.808z M396.64,118.767c-0.171,4.117,0.005,8.557,2.015,12.738
		c1.573,3.275,3.887,5.164,7.727,5.149c3.884-0.015,6.318-1.983,7.559-5.347c3.089-8.375,3.079-16.869,0.064-25.25
		c-1.208-3.357-3.858-5.463-7.563-5.494c-3.898-0.032-6.436,2.153-8.015,5.642C396.66,110.106,396.513,114.22,396.64,118.767z"/>
	<path fill="#EEEEEE" d="M228.66,189.49c-2.997,0-5.999-0.115-8.989,0.026c-4.063,0.193-4.349-1.437-3.066-4.864
		c12.777-34.181,25.424-68.412,38.134-102.618c2.426-6.529,5.336-12.906,7.326-19.562c1.232-4.125,3.764-5.781,7.434-5.84
		c5.617-0.09,11.218-0.452,16.884,0.613c3.711,0.697,3.358,2.069,2.404,4.619c-5.578,14.914-11.099,29.849-16.648,44.773
		c-8.209,22.077-16.423,44.15-24.645,66.221c-0.695,1.865-1.447,3.71-2.196,5.556C240.8,189.492,240.798,189.491,228.66,189.49z"/>
	<path fill="#36B5A5" d="M289.999,107.101c0.479-15.873,4.217-30.472,17.468-40.735c14.254-11.039,30.389-11.227,47.079-7.193
		c2.921,0.706,3.17,2.258,2.167,4.758c-1.733,4.323-3.455,8.667-4.83,13.11c-0.907,2.932-2.25,3.288-5.121,2.633
		c-8.965-2.043-17.576-1.818-24.527,5.522c-2.105,2.225-3.645,4.769-4.586,7.64c-3.442,10.511-3.184,20.965,0.877,31.25
		c1.701,4.308,4.566,7.786,8.804,9.821c2.294,1.103,2.771,2.375,1.819,4.724c-1.744,4.315-3.383,8.689-4.756,13.135
		c-1.049,3.392-2.799,3.883-5.935,2.676c-14.659-5.645-22.752-16.771-26.537-31.497
		C290.593,117.776,290.215,112.448,289.999,107.101z"/>
	<path fill="#36B5A5" d="M473.893,105.986c0,14.832-0.106,29.665,0.073,44.494c0.047,3.837-0.938,5.39-5.035,5.102
		c-5.141-0.36-10.329-0.188-15.491-0.046c-2.65,0.073-3.913-0.58-3.904-3.57c0.08-30.496,0.078-60.993,0.003-91.489
		c-0.008-2.979,1.339-3.716,3.938-3.68c5.332,0.074,10.672,0.182,15.996-0.036c3.601-0.147,4.509,1.373,4.479,4.731
		C473.816,76.322,473.893,91.155,473.893,105.986z"/>
	<path fill="#36B5A5" d="M362.893,124.492c0,7.649-0.164,15.304,0.077,22.945c0.103,3.235-1.131,4.844-4.018,5.877
		c-7.607,2.722-15.518,3.446-23.488,3.834c-2.901,0.141-4.038-0.987-2.771-3.927c0.918-2.129,1.392-4.476,2.474-6.506
		c4.78-8.974,3.854-18.668,3.938-28.275c0.03-3.452-2.122-3.104-4.295-3.079c-7.532,0.084-6.934,0.505-6.941-7.056
		c-0.015-12.689-0.008-12.689,12.87-12.689c5.32,0,10.673,0.354,15.955-0.1c5.269-0.453,6.559,1.608,6.302,6.531
		C362.606,109.511,362.893,117.011,362.893,124.492z"/>
	<path fill="#EEEEEE" d="M215.736,82.489c12.037,0,11.715,0.146,16.701,11.086c3.633,7.973,4.806,15.31,0.448,23.508
		c-3.085,5.803-4.778,12.35-7.051,18.58c-0.404,1.108-0.611,2.403-2.069,2.428c-1.472,0.023-1.692-1.269-2.106-2.375
		c-5.978-15.996-11.93-32-18.02-47.952c-1.459-3.824-0.942-5.685,3.614-5.317C210.063,82.675,212.906,82.489,215.736,82.489z"/>
</g>
</svg>
